HIERARCHY
ROOT Hips
{
    OFFSET   0.000000   0.000000   0.000000
    CHANNELS 6 Xposition Yposition Zposition Zrotation Xrotation Yrotation
    JOINT Chest
    {
        OFFSET   0.000000   8.007230   0.000000
        CHANNELS 3 Zrotation Xrotation Yrotation
        JOINT Chest2
        {
            OFFSET   0.000000  22.077100   0.000000
            CHANNELS 3 Zrotation Xrotation Yrotation
            JOINT Neck
            {
                OFFSET   0.000000  23.255100   0.000000
                CHANNELS 3 Zrotation Xrotation Yrotation
                JOINT Head
                {
                    OFFSET   0.000000  14.370100   1.956600
                    CHANNELS 3 Zrotation Xrotation Yrotation
                    End Site
                    {
                        OFFSET   0.000000  19.566000   0.000000
                    }
                }
            }
            JOINT LeftCollar
            {
                OFFSET   3.911900  19.017000  -0.467063
                CHANNELS 3 Zrotation Xrotation Yrotation
                JOINT LeftShoulder
                {
                    OFFSET  10.383700   0.000000   0.000000
                    CHANNELS 3 Zrotation Xrotation Yrotation
                    JOINT LeftElbow
                    {
                        OFFSET  26.662100   0.001193   0.000980
                        CHANNELS 3 Zrotation Xrotation Yrotation
                        JOINT LeftWrist
                        {
                            OFFSET  28.869000  -0.000059  -0.000082
                            CHANNELS 3 Zrotation Xrotation Yrotation
                            JOINT LeftFinger0
                            {
                                OFFSET   2.044650  -2.323450   3.252850
                                CHANNELS 3 Zrotation Xrotation Yrotation
                                JOINT LeftFinger01
                                {
                                    OFFSET   3.088130   0.000000   0.000000
                                    CHANNELS 3 Zrotation Xrotation Yrotation
                                    JOINT LeftFinger02
                                    {
                                        OFFSET   2.639460   0.000000   0.000000
                                        CHANNELS 3 Zrotation Xrotation Yrotation
                                        End Site
                                        {
                                            OFFSET   2.582190   0.000000   0.000000
                                        }
                                    }
                                }
                            }
                            JOINT LeftFinger1
                            {
                                OFFSET   8.364480   0.000000   3.252850
                                CHANNELS 3 Zrotation Xrotation Yrotation
                                JOINT LeftFinger11
                                {
                                    OFFSET   4.646930   0.000000   0.000000
                                    CHANNELS 3 Zrotation Xrotation Yrotation
                                    JOINT LeftFinger12
                                    {
                                        OFFSET   2.323470   0.000000   0.000000
                                        CHANNELS 3 Zrotation Xrotation Yrotation
                                        End Site
                                        {
                                            OFFSET   2.273050   0.000000   0.000000
                                        }
                                    }
                                }
                            }
                            JOINT LeftFinger2
                            {
                                OFFSET   8.364490   0.000016   1.078090
                                CHANNELS 3 Zrotation Xrotation Yrotation
                                JOINT LeftFinger21
                                {
                                    OFFSET   5.111610   0.000000   0.000000
                                    CHANNELS 3 Zrotation Xrotation Yrotation
                                    JOINT LeftFinger22
                                    {
                                        OFFSET   2.788150   0.000016   0.000000
                                        CHANNELS 3 Zrotation Xrotation Yrotation
                                        End Site
                                        {
                                            OFFSET   2.727660   0.000000   0.000000
                                        }
                                    }
                                }
                            }
                            JOINT LeftFinger3
                            {
                                OFFSET   7.899780   0.000015  -1.078090
                                CHANNELS 3 Zrotation Xrotation Yrotation
                                JOINT LeftFinger31
                                {
                                    OFFSET   4.646930   0.000000   0.000000
                                    CHANNELS 3 Zrotation Xrotation Yrotation
                                    JOINT LeftFinger32
                                    {
                                        OFFSET   2.323470   0.000000   0.000000
                                        CHANNELS 3 Zrotation Xrotation Yrotation
                                        End Site
                                        {
                                            OFFSET   2.273050   0.000000   0.000000
                                        }
                                    }
                                }
                            }
                            JOINT LeftFinger4
                            {
                                OFFSET   7.435090   0.000000  -3.252850
                                CHANNELS 3 Zrotation Xrotation Yrotation
                                JOINT LeftFinger41
                                {
                                    OFFSET   3.717550   0.000000   0.000000
                                    CHANNELS 3 Zrotation Xrotation Yrotation
                                    JOINT LeftFinger42
                                    {
                                        OFFSET   1.858770   0.000000   0.000000
                                        CHANNELS 3 Zrotation Xrotation Yrotation
                                        End Site
                                        {
                                            OFFSET   1.818440   0.000000   0.000000
                                        }
                                    }
                                }
                            }
                        }
                    }
                }
            }
            JOINT RightCollar
            {
                OFFSET  -3.911910  19.017000  -0.467062
                CHANNELS 3 Zrotation Xrotation Yrotation
                JOINT RightShoulder
                {
                    OFFSET -10.383700   0.000014   0.000000
                    CHANNELS 3 Zrotation Xrotation Yrotation
                    JOINT RightElbow
                    {
                        OFFSET -26.662100   0.001225   0.001091
                        CHANNELS 3 Zrotation Xrotation Yrotation
                        JOINT RightWrist
                        {
                            OFFSET -28.869000  -0.000020  -0.000085
                            CHANNELS 3 Zrotation Xrotation Yrotation
                            JOINT RightFinger0
                            {
                                OFFSET  -2.044650  -2.323490   3.252850
                                CHANNELS 3 Zrotation Xrotation Yrotation
                                JOINT RightFinger01
                                {
                                    OFFSET  -3.088130   0.000000   0.000000
                                    CHANNELS 3 Zrotation Xrotation Yrotation
                                    JOINT RightFinger02
                                    {
                                        OFFSET  -2.639460   0.000000   0.000000
                                        CHANNELS 3 Zrotation Xrotation Yrotation
                                        End Site
                                        {
                                            OFFSET  -2.582190   0.000000   0.000000
                                        }
                                    }
                                }
                            }
                            JOINT RightFinger1
                            {
                                OFFSET  -8.364480   0.000000   3.252850
                                CHANNELS 3 Zrotation Xrotation Yrotation
                                JOINT RightFinger11
                                {
                                    OFFSET  -4.646930   0.000000   0.000000
                                    CHANNELS 3 Zrotation Xrotation Yrotation
                                    JOINT RightFinger12
                                    {
                                        OFFSET  -2.323470   0.000000   0.000000
                                        CHANNELS 3 Zrotation Xrotation Yrotation
                                        End Site
                                        {
                                            OFFSET  -2.273050   0.000000   0.000000
                                        }
                                    }
                                }
                            }
                            JOINT RightFinger2
                            {
                                OFFSET  -8.364480   0.000000   1.078090
                                CHANNELS 3 Zrotation Xrotation Yrotation
                                JOINT RightFinger21
                                {
                                    OFFSET  -5.111620   0.000000   0.000000
                                    CHANNELS 3 Zrotation Xrotation Yrotation
                                    JOINT RightFinger22
                                    {
                                        OFFSET  -2.788160   0.000000   0.000000
                                        CHANNELS 3 Zrotation Xrotation Yrotation
                                        End Site
                                        {
                                            OFFSET  -2.727660   0.000000   0.000000
                                        }
                                    }
                                }
                            }
                            JOINT RightFinger3
                            {
                                OFFSET  -7.899780   0.000000  -1.078090
                                CHANNELS 3 Zrotation Xrotation Yrotation
                                JOINT RightFinger31
                                {
                                    OFFSET  -4.646930   0.000000   0.000000
                                    CHANNELS 3 Zrotation Xrotation Yrotation
                                    JOINT RightFinger32
                                    {
                                        OFFSET  -2.323470   0.000000   0.000000
                                        CHANNELS 3 Zrotation Xrotation Yrotation
                                        End Site
                                        {
                                            OFFSET  -2.273050   0.000000   0.000000
                                        }
                                    }
                                }
                            }
                            JOINT RightFinger4
                            {
                                OFFSET  -7.435090   0.000000  -3.252850
                                CHANNELS 3 Zrotation Xrotation Yrotation
                                JOINT RightFinger41
                                {
                                    OFFSET  -3.717550   0.000000   0.000000
                                    CHANNELS 3 Zrotation Xrotation Yrotation
                                    JOINT RightFinger42
                                    {
                                        OFFSET  -1.858760   0.000000   0.000000
                                        CHANNELS 3 Zrotation Xrotation Yrotation
                                        End Site
                                        {
                                            OFFSET  -1.818440   0.000000   0.000000
                                        }
                                    }
                                }
                            }
                        }
                    }
                }
            }
        }
    }
    JOINT LeftHip
    {
        OFFSET   9.783030   0.000000   0.000000
        CHANNELS 3 Zrotation Xrotation Yrotation
        JOINT LeftKnee
        {
            OFFSET   0.000063 -41.789100   0.000608
            CHANNELS 3 Zrotation Xrotation Yrotation
            JOINT LeftAnkle
            {
                OFFSET   0.000048 -41.133200  -0.000184
                CHANNELS 3 Zrotation Xrotation Yrotation
                JOINT LeftToe
                {
                    OFFSET   0.000000  -6.358960  14.674500
                    CHANNELS 3 Zrotation Xrotation Yrotation
                    End Site
                    {
                        OFFSET   0.000000   0.000000   3.913200
                    }
                }
            }
        }
    }
    JOINT RightHip
    {
        OFFSET  -9.783030   0.000000   0.000000
        CHANNELS 3 Zrotation Xrotation Yrotation
        JOINT RightKnee
        {
            OFFSET   0.000071 -41.789100   0.001239
            CHANNELS 3 Zrotation Xrotation Yrotation
            JOINT RightAnkle
            {
                OFFSET   0.000037 -41.133200  -0.000166
                CHANNELS 3 Zrotation Xrotation Yrotation
                JOINT RightToe
                {
                    OFFSET   0.000000  -6.358960  14.674500
                    CHANNELS 3 Zrotation Xrotation Yrotation
                    End Site
                    {
                        OFFSET   0.000000   0.000000   3.913200
                    }
                }
            }
        }
    }
}
MOTION
Frames: 4
Frame Time:   0.016667
 -1.550670  89.609300   0.619200  -0.795807 -16.453700  -1.587600  -0.801809  11.216100  -0.323943  -1.584530  22.435700  -0.498955   2.151590   1.719950  -0.068244   3.543480   3.472910   0.933700  -6.311580  -3.212900   5.450330 -68.803600  13.733800 -33.451400   9.691040 -15.945000 -67.034800  18.771300 -64.636100  24.992900  49.028400  42.119600 -81.112100 -24.895200  -0.001961  -0.000861  -7.447560   0.002656  -0.004610 -21.713700   4.657740 -11.525200 -18.150500   0.002832  -0.004053 -12.705300   0.000024  -0.003565 -28.097500  -4.106530   7.648700 -34.847300   0.001026  -0.004700 -23.208300   0.007148  -0.000370 -24.688700  -4.082930   8.802960 -25.005300   0.002684  -0.006776 -16.654800   0.005900  -0.000761 -26.827400  -6.982130  13.515400 -41.481600   0.001050  -0.000623 -27.626700   0.001125   0.001423   9.049620  -0.119884  10.234500  69.716100  -2.376910  28.739800  -8.068700 -21.925000  67.580400 -89.608900 -59.223500 -49.408900 -40.999100  40.347000  84.104500  28.180100   0.004665  -0.006183   9.090030  -0.002598   0.005077  35.968600  -1.147810  -1.580860  29.441800   0.000116  -0.001272  20.609200  -0.000376   0.000773  27.875600  -4.173690  -7.835590  33.119100   0.000916   0.004919  22.057300   0.001263   0.001485  27.627100  -5.135790  -9.704200  32.423500   0.005011   0.005823  21.594000   0.005031   0.003823  41.967700  -8.082470  -8.887070  63.889000   0.005872   0.001851  42.550000   0.002794  -0.003200   1.413480  14.437600   4.216910   1.218180   4.631570  10.627700  -6.978990  -3.555690   3.184180  -0.000000   0.000000   0.000000   4.366510  12.342200  -9.218810  -2.196410   8.265200  -3.694740  -9.567060  -2.748170   3.338880  -0.000000   0.000000   0.000000
 -1.530890  89.614100   0.731350  -0.807926 -16.430100  -1.604930  -0.778841  11.110000  -0.311791  -1.539500  22.223300  -0.480146   2.141520   1.697950  -0.068201   3.527010   3.428770   0.857619  -6.348750  -3.218400   5.439520 -68.885100  13.815000 -33.396100   9.640640 -15.866700 -66.945200  18.907400 -64.718100  25.278500  49.120300  42.172900 -81.232400 -24.859400  -0.001949  -0.000821  -7.429680   0.002651  -0.004609 -21.695900   4.668120 -11.560400 -18.137900   0.002872  -0.004056 -12.696500   0.000060  -0.003569 -28.095800  -4.106990   7.650310 -34.833400   0.000986  -0.004670 -23.199100   0.007241  -0.000274 -24.695000  -4.063850   8.761330 -25.006300   0.002657  -0.006805 -16.654200   0.006053  -0.000687 -26.847000  -6.958050  13.459800 -41.503400   0.001048  -0.000576 -27.641200   0.001115   0.001532   9.054030  -0.135615  10.222600  69.756300  -2.331590  28.621100  -8.071790 -21.918200  67.557300 -89.477400 -59.194300 -49.370200 -41.079900  40.456400  84.229000  28.098000   0.004645  -0.006290   9.049000  -0.002556   0.005136  36.056200  -1.154550  -1.585400  29.513600   0.000168  -0.001040  20.659500  -0.000336   0.000806  27.895200  -4.169330  -7.820210  33.258400   0.000908   0.005110  22.150100   0.001271   0.001549  27.655400  -5.134610  -9.688910  32.612100   0.005171   0.006071  21.719700   0.005163   0.003896  42.082700  -8.067250  -8.833640  64.060200   0.006109   0.001881  42.664100   0.002897  -0.003096   1.394970  14.472600   4.199110   1.197590   4.660790  10.646300  -6.941600  -3.650700   3.200160   0.000000   0.000000   0.000000   4.371420  12.428000  -9.189170  -2.163660   8.208870  -3.753530  -9.575440  -2.782280   3.368510   0.000000   0.000000  -0.000000
 -1.507190  89.618300   0.837740  -0.814003 -16.415300  -1.628520  -0.763120  11.016400  -0.298549  -1.509660  22.035900  -0.457360   2.140720   1.684990  -0.068277   3.526000   3.402330   0.822363  -6.380470  -3.237600   5.428980 -68.959300  13.911800 -33.349700   9.619760 -15.826600 -66.849800  18.958900 -64.696200  25.411300  49.317600  42.287300 -81.416900 -24.802000  -0.001956  -0.000843  -7.401000   0.002657  -0.004608 -21.646700   4.686970 -11.634000 -18.101800   0.002911  -0.004050 -12.671200   0.000076  -0.003570 -28.089800  -4.107360   7.655980 -34.792400   0.000948  -0.004649 -23.171800   0.007336  -0.000176 -24.682500  -4.022680   8.680710 -24.988000   0.002630  -0.006835 -16.641800   0.006203  -0.000602 -26.830100  -6.921400  13.402800 -41.464300   0.001026  -0.000529 -27.615200   0.001123   0.001653   9.058800  -0.154207  10.222600  69.797000  -2.284450  28.520200  -8.127830 -21.902800  67.502600 -89.358300 -59.180000 -49.349200 -41.140700  40.537500  84.322800  28.032700   0.004636  -0.006399   9.016350  -0.002499   0.005191  36.092800  -1.164560  -1.597010  29.543700   0.000213  -0.000812  20.680600  -0.000285   0.000852  27.901200  -4.168940  -7.815510  33.301000   0.000923   0.005308  22.178400   0.001278   0.001600  27.665500  -5.133280  -9.683580  32.677800   0.005322   0.006308  21.763500   0.005297   0.003967  42.127200  -8.036160  -8.790300  64.118400   0.006341   0.001904  42.702900   0.003007  -0.002997   1.363470  14.520200   4.179860   1.183070   4.689360  10.663300  -6.905060  -3.751580   3.228670  -0.000000   0.000000   0.000000   4.369550  12.495500  -9.155370  -2.137800   8.202910  -3.805790  -9.579100  -2.837250   3.392920  -0.000000   0.000000  -0.000000
 -1.482850  89.621500   0.940112  -0.819963 -16.410300  -1.654310  -0.751653  10.935900  -0.286175  -1.488400  21.874700  -0.435278   2.140610   1.681260  -0.068477   3.525950   3.394550   0.816498  -6.408870  -3.260850   5.417590 -69.026000  14.006500 -33.310400   9.626030 -15.802300 -66.752300  19.049600 -64.672000  25.550800  49.436400  42.371200 -81.540200 -24.763300  -0.001964  -0.000866  -7.381640   0.002664  -0.004608 -21.610900   4.699970 -11.685900 -18.075400   0.002952  -0.004044 -12.652800   0.000088  -0.003570 -28.085500  -4.107700   7.660010 -34.761400   0.000910  -0.004634 -23.151100   0.007436  -0.000076 -24.663300  -3.993540   8.624550 -24.964600   0.002605  -0.006868 -16.626500   0.006359  -0.000516 -26.807500  -6.896880  13.368300 -41.425200   0.001008  -0.000485 -27.589200   0.001138   0.001779   9.062580  -0.172782  10.222600  69.827500  -2.227430  28.435900  -8.184360 -21.894300  67.437200 -89.254600 -59.173100 -49.342700 -41.196000  40.610900  84.408200  27.966200   0.004627  -0.006504   8.983110  -0.002444   0.005243  36.116200  -1.175640  -1.610830  29.563100   0.000261  -0.000580  20.694200  -0.000230   0.000901  27.904400  -4.168540  -7.812980  33.324000   0.000950   0.005503  22.193800   0.001296   0.001656  27.671300  -5.131890  -9.680530  32.715800   0.005471   0.006545  21.788700   0.005429   0.004040  42.156200  -8.014200  -8.754470  64.156000   0.006571   0.001928  42.727900   0.003122  -0.002903   1.326670  14.578700   4.158390   1.169260   4.724340  10.682000  -6.868750  -3.856060   3.260350  -0.000000   0.000000  -0.000000   4.367060  12.554900  -9.118370  -2.122660   8.201600  -3.861570  -9.579800  -2.909650   3.416400  -0.000000   0.000000   0.000000
